<?xml version="1.0"?>
<svg width="600" height="500" xmlns="http://www.w3.org/2000/svg" xmlns:svg="http://www.w3.org/2000/svg" xmlns:se="http://svg-edit.googlecode.com" data-name="Layer 1">
 <title>unicorn</title>
 <g class="layer">
  <title>Layer 1</title>
  <path d="m591.437506,267.24795q-1.145,-5.91318 -2.35844,-11.66686a0.01116,0.01116 0 0 1 -0.0114,-0.01139c-10.23129,-48.54736 -24.01732,-88.356 -40.34409,-120.82721l-43.26082,-14.8798l32.608,-4.65991c-13.18218,-22.36528 -27.70879,-40.6859 -43.14687,-55.55431l-79.45774,9.08053l59.975,-25.70355c-110.21997,-82.90989 -254.72271,-16.31535 -294.09839,4.61436c-5.40048,2.85974 -8.81851,4.87638 -9.91227,5.5258c-0.0114,0 -0.0114,0 -0.02279,0.0114c-0.23926,0.14811 -0.3532,0.21647 -0.3532,0.21647l22.35389,11.6099l0.01139,0l396.99232,206.20948l1.02541,-3.96491z" fill="#f50004" id="svg_3"/>
  <path d="m591.437506,267.24795q0.769,-3.05913 1.46975,-6.12966c-1.16213,-1.69762 -2.43819,-3.55474 -3.82819,-5.5372a0.01116,0.01116 0 0 1 -0.0114,-0.01139c-45.77875,-65.45519 -213.581,-279.33245 -406.87037,-206.73359l-0.0114,0q-5.3663,2.01664 -10.75538,4.3295c-0.0114,0 -0.0114,0 -0.02279,0.0114q-4.90486,2.10208 -9.82113,4.46622c-1.66344,0.78614 -3.31548,1.60647 -4.97892,2.43819c-1.447,0.72918 -2.88254,1.46975 -4.3295,2.23311c0,0 -8.226,2.06221 -17.44333,9.83252c-18.10414,15.29 -40.04786,52.649 -10.97186,139.877c0,0 25.81749,72.26846 12.90875,105.83347c-12.90875,33.54222 67.13,72.25706 90.33841,0c23.23118,-72.27985 30.9901,-141.97339 30.9901,-141.97339s26.70618,56.27209 24.0743,112.7037c-1.08238,23.12864 0.97983,46.28006 7.212,68.5542c0.638,2.33565 1.333,4.6713 2.028,7.04113c8.397,28.19871 21.49938,64.47536 40.79983,99.55569a335.91344,335.91344 0 0 0 31.37748,47.56753a339.57858,339.57858 0 0 0 45.07236,-18.30923a345.97431,345.97431 0 0 0 181.74788,-221.78429l1.02541,-3.96491z" fill="#3f3d56" id="svg_4"/>
  <polygon fill="#3f3d56" id="svg_5" points="160.010986328125,88.12701416015625 149.68600463867188,2.949005126953125 193.56600952148438,64.89599609375 160.010986328125,88.12701416015625 "/>
  <polygon fill="#3f3d56" id="svg_6" points="137.51199340820312,94.26300048828125 127.18701171875,9.084991455078125 171.06698608398438,71.03201293945312 137.51199340820312,94.26300048828125 "/>
  <polygon fill="#f50004" id="svg_7" points="115.0369873046875,173.63400268554688 4.7899932861328125,30.3330078125 116.44601440429688,130.59500122070312 115.0369873046875,173.63400268554688 "/>
 </g>
</svg>