<?xml version="1.0" encoding="utf-8"?>
<!-- Generator: Adobe Illustrator 17.1.0, SVG Export Plug-In . SVG Version: 6.00 Build 0)  -->
<!DOCTYPE svg PUBLIC "-//W3C//DTD SVG 1.1//EN" "http://www.w3.org/Graphics/SVG/1.1/DTD/svg11.dtd">
<svg version="1.1" id="Layer_1" xmlns="http://www.w3.org/2000/svg" xmlns:xlink="http://www.w3.org/1999/xlink" x="0px" y="0px"
	 width="94.2px" height="40px" viewBox="0 0 94.2 40" enable-background="new 0 0 94.2 40" xml:space="preserve">
<g>
	<path d="M48.5,22.2c0,0.9-0.2,1.8-0.6,2.4c-0.4,0.7-0.8,1.3-1.4,1.8c-0.7,0.6-1.5,0.9-2.3,1.1c-0.8,0.2-1.9,0.4-3.2,0.4h-6.5V9.4
		H40c1.3,0,2.3,0.1,3,0.2c0.7,0.1,1.3,0.3,2,0.7c0.7,0.4,1.2,0.8,1.5,1.4c0.3,0.6,0.5,1.2,0.5,2c0,0.8-0.2,1.6-0.7,2.2
		c-0.5,0.7-1,1.1-1.8,1.5v0.1c1.2,0.3,2.2,0.8,3,1.7C48.1,19.9,48.5,20.9,48.5,22.2z M44.4,13.9c0-0.5-0.1-0.8-0.2-1.1
		c-0.2-0.3-0.4-0.6-0.7-0.7c-0.4-0.2-0.8-0.4-1.4-0.4c-0.6-0.1-1.2-0.1-2-0.1h-2.9v5.3h3.2c0.7,0,1.4,0,1.9-0.1
		c0.5-0.1,0.8-0.3,1.3-0.5c0.4-0.3,0.7-0.6,0.8-0.9C44.3,14.9,44.4,14.5,44.4,13.9z M45.9,22.3c0-0.7-0.1-1.3-0.4-1.8
		c-0.2-0.5-0.7-0.8-1.2-1.1C44,19.2,43.5,19,43,19c-0.6-0.1-1.2-0.1-2-0.1h-3.8v6.9h3.3c1.1,0,2-0.1,2.6-0.2
		c0.7-0.1,1.2-0.3,1.7-0.7c0.5-0.3,0.8-0.7,1-1.1C45.8,23.5,45.9,22.9,45.9,22.3z"/>
	<path d="M61.8,27.9h-2.3v-1.5c-0.7,0.7-1.5,1.1-2.2,1.4c-0.7,0.4-1.5,0.5-2.4,0.5c-1.5,0-2.6-0.5-3.3-1.3c-0.8-0.9-1.2-2.1-1.2-3.9
		v-8.9h2.3v7.8c0,0.7,0,1.3,0.1,1.8c0.1,0.5,0.2,0.9,0.5,1.3c0.2,0.4,0.5,0.7,0.8,0.7c0.4,0.2,0.8,0.3,1.6,0.3c0.6,0,1.3-0.2,2-0.5
		c0.7-0.3,1.4-0.7,2-1.2V14.1h2.3V27.9z"/>
	<path d="M72.5,16.6L72.5,16.6c-0.5-0.1-0.7-0.2-1.1-0.2c-0.4,0-0.7-0.1-1.1-0.1c-0.7,0-1.4,0.2-2,0.5c-0.7,0.3-1.3,0.7-2,1.2v9.8
		H64V14.1h2.3v2c0.9-0.7,1.8-1.3,2.4-1.6c0.7-0.3,1.4-0.5,2.1-0.5c0.4,0,0.7,0,0.8,0s0.5,0.1,0.8,0.1L72.5,16.6L72.5,16.6z"/>
	<path d="M84.5,23.9c0,1.3-0.6,2.3-1.6,3.1c-1,0.8-2.5,1.2-4.3,1.2c-1,0-2-0.1-2.8-0.4s-1.6-0.5-2.1-0.8v-2.6h0.1
		c0.7,0.6,1.6,1,2.4,1.3c0.9,0.3,1.8,0.5,2.6,0.5c1,0,1.9-0.2,2.4-0.5c0.6-0.4,0.8-0.8,0.8-1.6c0-0.6-0.2-0.9-0.5-1.2
		c-0.3-0.3-0.9-0.6-1.8-0.7c-0.4-0.1-0.7-0.2-1.3-0.3c-0.6-0.1-1-0.2-1.5-0.3c-1.2-0.3-2-0.8-2.6-1.4c-0.5-0.7-0.7-1.4-0.7-2.3
		c0-0.6,0.1-1.1,0.4-1.6c0.3-0.5,0.6-0.9,1.1-1.3c0.5-0.4,1-0.7,1.8-0.9c0.7-0.2,1.5-0.4,2.4-0.4c0.8,0,1.7,0.1,2.5,0.3
		c0.8,0.2,1.6,0.5,2.1,0.7v2.5H84c-0.6-0.5-1.3-0.8-2.1-1.1c-0.8-0.3-1.7-0.5-2.5-0.5s-1.6,0.2-2.1,0.5s-0.8,0.8-0.8,1.5
		c0,0.6,0.2,1,0.6,1.3c0.4,0.3,0.9,0.6,1.7,0.7c0.5,0.1,0.9,0.2,1.4,0.3c0.5,0.1,0.9,0.2,1.3,0.3c1.1,0.3,2,0.7,2.5,1.3
		C84.3,22.1,84.5,22.8,84.5,23.9z"/>
	<path d="M94.1,27.8c-0.5,0.1-0.9,0.2-1.4,0.3c-0.6,0.1-0.9,0.1-1.4,0.1c-1.4,0-2.5-0.4-3.3-1.1s-1.1-2-1.1-3.6V16h-1.6v-2H87v-4
		h2.3v4h4.8v2h-4.8v6.3c0,0.7,0,1.3,0.1,1.7c0,0.4,0.2,0.7,0.4,1.1c0.2,0.4,0.5,0.6,0.7,0.7c0.3,0.2,0.8,0.2,1.5,0.2
		c0.4,0,0.7-0.1,1.2-0.2c0.4-0.1,0.7-0.2,0.9-0.3h0.1L94.1,27.8L94.1,27.8z"/>
	<path fill="#ED202A" d="M85.6,30c0,0-1.7,3.8-6.5,3.8c-4.3,0-6.4-3.8-6.4-3.8h-38c0,0-0.1,0.6-0.7,2.6c-0.7,2.1-1.5,3.1-1.5,3.1
		c-4.4,4.5-7.7-0.8-11.3-3.7c-1.2-0.9-2.5-1.5-3.7-1.7c7.7-0.9,13.7-7.3,13.7-15.1c0-8.4-7-15.2-15.5-15.2S0,6.8,0,15.2
		c0,7.6,5.8,13.9,13.3,15c-8.7,1.8-9.2,9.8-9.2,9.8s0.2-0.4,0.7-1.3c0.6-1,2.1-3.3,3.8-4.7c1.9-1.5,5.6-3.3,9.5-1.8
		c4,1.4,5.4,7,10.7,7.2c5.5,0.2,7-6.2,7.3-8h35.6c0.7,0.7,2.9,3.8,7.3,3.8c4.9,0,6.7-3.1,7.2-3.8h7.9v-1.4L85.6,30L85.6,30z M5,15.2
		C5,7.3,9.8,0.9,15.5,0.9C21.4,0.9,26,7.3,26,15.2s-4.7,14.3-10.5,14.3C9.8,29.5,5,23.1,5,15.2z"/>
</g>
</svg>
